<svg width="188" height="34" viewBox="0 0 188 34" fill="none" xmlns="http://www.w3.org/2000/svg">
<rect width="178" height="34" rx="10" fill="#0D423B"/>
<path d="M156.05 16.0381L154.191 17.8482C153.428 18.5905 153 19.5973 153 20.6471C153 21.6968 153.428 22.7036 154.191 23.4459C154.953 24.1883 155.987 24.6053 157.065 24.6053C158.143 24.6053 159.177 24.1883 159.94 23.4459L162.417 21.033C162.876 20.5853 163.219 20.0367 163.416 19.4334C163.613 18.83 163.658 18.1895 163.548 17.5655C163.439 16.9415 163.177 16.3523 162.784 15.8473C162.392 15.3424 161.881 14.9364 161.295 14.6634L160.501 15.4365C160.42 15.5151 160.35 15.6033 160.292 15.699C160.745 15.8259 161.157 16.0658 161.486 16.3949C161.814 16.7241 162.049 17.1311 162.167 17.5757C162.285 18.0204 162.282 18.4873 162.157 18.9303C162.033 19.3732 161.792 19.777 161.459 20.1015L158.983 22.5132C158.475 23.0083 157.785 23.2865 157.066 23.2865C156.347 23.2865 155.657 23.0083 155.149 22.5132C154.64 22.0181 154.354 21.3466 154.354 20.6464C154.354 19.9462 154.64 19.2747 155.149 18.7796L156.223 17.7347C156.071 17.1816 156.013 16.6095 156.05 16.0381Z" fill="white"/>
<path d="M158.585 13.571C158.125 14.0187 157.782 14.5672 157.585 15.1706C157.388 15.7739 157.343 16.4145 157.453 17.0385C157.563 17.6624 157.825 18.2516 158.217 18.7566C158.609 19.2616 159.12 19.6676 159.707 19.9406L160.757 18.9168C160.297 18.7968 159.878 18.5612 159.542 18.2337C159.206 17.9061 158.964 17.4982 158.841 17.0508C158.718 16.6034 158.718 16.1324 158.841 15.6851C158.964 15.2378 159.206 14.8299 159.543 14.5024L162.018 12.0908C162.527 11.5957 163.216 11.3175 163.935 11.3175C164.655 11.3175 165.344 11.5957 165.853 12.0908C166.361 12.5859 166.647 13.2574 166.647 13.9576C166.647 14.6577 166.361 15.3293 165.853 15.8244L164.778 16.8692C164.93 17.4233 164.988 17.9972 164.952 18.5672L166.811 16.7571C167.573 16.0148 168.001 15.008 168.001 13.9582C168.001 12.9084 167.573 11.9016 166.811 11.1593C166.048 10.417 165.014 10 163.936 10C162.858 10 161.824 10.417 161.062 11.1593L158.585 13.571Z" fill="white"/>
<path d="M11.7614 24V9.45455H16.6761C17.8172 9.45455 18.75 9.66051 19.4744 10.0724C20.2036 10.4796 20.7434 11.0312 21.0938 11.7273C21.4441 12.4233 21.6193 13.1998 21.6193 14.0568C21.6193 14.9138 21.4441 15.6927 21.0938 16.3935C20.7481 17.0942 20.2131 17.6529 19.4886 18.0696C18.7642 18.4815 17.8362 18.6875 16.7045 18.6875H13.1818V17.125H16.6477C17.429 17.125 18.0563 16.9901 18.5298 16.7202C19.0033 16.4503 19.3466 16.0857 19.5597 15.6264C19.7775 15.1624 19.8864 14.6392 19.8864 14.0568C19.8864 13.4744 19.7775 12.9536 19.5597 12.4943C19.3466 12.035 19.0009 11.6752 18.5227 11.4148C18.0445 11.1496 17.41 11.017 16.6193 11.017H13.5227V24H11.7614ZM24.2294 24V13.0909H25.8487V14.7386H25.9624C26.1612 14.1989 26.5211 13.7609 27.0419 13.4247C27.5627 13.0885 28.1499 12.9205 28.8033 12.9205C28.9264 12.9205 29.0803 12.9228 29.2649 12.9276C29.4496 12.9323 29.5893 12.9394 29.6839 12.9489V14.6534C29.6271 14.6392 29.4969 14.6179 29.2933 14.5895C29.0945 14.5563 28.8838 14.5398 28.6612 14.5398C28.1309 14.5398 27.6574 14.651 27.2408 14.8736C26.8288 15.0914 26.5021 15.3944 26.2607 15.7827C26.0239 16.1662 25.9055 16.6042 25.9055 17.0966V24H24.2294ZM35.7706 24.2273C34.7857 24.2273 33.9216 23.9929 33.1783 23.5241C32.4396 23.0554 31.862 22.3996 31.4453 21.5568C31.0334 20.714 30.8274 19.7292 30.8274 18.6023C30.8274 17.4659 31.0334 16.474 31.4453 15.6264C31.862 14.7789 32.4396 14.1207 33.1783 13.652C33.9216 13.1832 34.7857 12.9489 35.7706 12.9489C36.7554 12.9489 37.6172 13.1832 38.3558 13.652C39.0992 14.1207 39.6768 14.7789 40.0888 15.6264C40.5054 16.474 40.7138 17.4659 40.7138 18.6023C40.7138 19.7292 40.5054 20.714 40.0888 21.5568C39.6768 22.3996 39.0992 23.0554 38.3558 23.5241C37.6172 23.9929 36.7554 24.2273 35.7706 24.2273ZM35.7706 22.7216C36.5187 22.7216 37.1342 22.5298 37.6172 22.1463C38.1001 21.7628 38.4576 21.2585 38.6896 20.6335C38.9216 20.0085 39.0376 19.3314 39.0376 18.6023C39.0376 17.8731 38.9216 17.1937 38.6896 16.5639C38.4576 15.9342 38.1001 15.4252 37.6172 15.0369C37.1342 14.6487 36.5187 14.4545 35.7706 14.4545C35.0225 14.4545 34.407 14.6487 33.924 15.0369C33.4411 15.4252 33.0836 15.9342 32.8516 16.5639C32.6196 17.1937 32.5036 17.8731 32.5036 18.6023C32.5036 19.3314 32.6196 20.0085 32.8516 20.6335C33.0836 21.2585 33.4411 21.7628 33.924 22.1463C34.407 22.5298 35.0225 22.7216 35.7706 22.7216ZM43.2724 13.0909H44.9485V24.7955C44.9485 25.4678 44.8325 26.0502 44.6005 26.5426C44.3732 27.035 44.0276 27.4162 43.5636 27.6861C43.1043 27.956 42.5243 28.0909 41.8235 28.0909C41.7667 28.0909 41.7099 28.0909 41.6531 28.0909C41.5962 28.0909 41.5394 28.0909 41.4826 28.0909V26.5284C41.5394 26.5284 41.5915 26.5284 41.6388 26.5284C41.6862 26.5284 41.7383 26.5284 41.7951 26.5284C42.3065 26.5284 42.6805 26.3769 42.9173 26.0739C43.154 25.7756 43.2724 25.3494 43.2724 24.7955V13.0909ZM44.0962 11.2727C43.7695 11.2727 43.4878 11.1615 43.2511 10.9389C43.0191 10.7164 42.9031 10.4489 42.9031 10.1364C42.9031 9.82386 43.0191 9.55634 43.2511 9.33381C43.4878 9.11127 43.7695 9 44.0962 9C44.4229 9 44.7023 9.11127 44.9343 9.33381C45.171 9.55634 45.2894 9.82386 45.2894 10.1364C45.2894 10.4489 45.171 10.7164 44.9343 10.9389C44.7023 11.1615 44.4229 11.2727 44.0962 11.2727ZM52.5923 24.2273C51.5412 24.2273 50.6345 23.9953 49.8722 23.5312C49.1146 23.0625 48.5298 22.4091 48.1179 21.571C47.7107 20.7282 47.5071 19.7481 47.5071 18.6307C47.5071 17.5133 47.7107 16.5284 48.1179 15.6761C48.5298 14.8191 49.1027 14.1515 49.8366 13.6733C50.5753 13.1903 51.437 12.9489 52.4219 12.9489C52.9901 12.9489 53.5511 13.0436 54.1051 13.233C54.6591 13.4223 55.1634 13.7301 55.6179 14.1562C56.0724 14.5777 56.4347 15.1364 56.7045 15.8324C56.9744 16.5284 57.1094 17.3854 57.1094 18.4034V19.1136H48.7003V17.6648H55.4048C55.4048 17.0492 55.2817 16.5 55.0355 16.017C54.794 15.5341 54.4484 15.1529 53.9986 14.8736C53.5535 14.5942 53.0279 14.4545 52.4219 14.4545C51.7543 14.4545 51.1766 14.6203 50.6889 14.9517C50.206 15.2784 49.8343 15.7045 49.5739 16.2301C49.3134 16.7557 49.1832 17.3191 49.1832 17.9205V18.8864C49.1832 19.7102 49.3253 20.4086 49.6094 20.9815C49.8982 21.5497 50.2983 21.983 50.8097 22.2812C51.321 22.5748 51.9152 22.7216 52.5923 22.7216C53.0327 22.7216 53.4304 22.66 53.7855 22.5369C54.1454 22.4091 54.4555 22.2197 54.7159 21.9688C54.9763 21.7131 55.1776 21.3958 55.3196 21.017L56.9389 21.4716C56.7685 22.0208 56.482 22.5038 56.0795 22.9205C55.6771 23.3324 55.1799 23.6544 54.5881 23.8864C53.9962 24.1136 53.331 24.2273 52.5923 24.2273ZM64.4034 13.0909V14.5114H58.75V13.0909H64.4034ZM60.3977 10.4773H62.0739V20.875C62.0739 21.3485 62.1425 21.7036 62.2798 21.9403C62.4219 22.1723 62.6018 22.3286 62.8196 22.4091C63.0421 22.4848 63.2765 22.5227 63.5227 22.5227C63.7074 22.5227 63.8589 22.5133 63.9773 22.4943C64.0956 22.4706 64.1903 22.4517 64.2614 22.4375L64.6023 23.9432C64.4886 23.9858 64.33 24.0284 64.1264 24.071C63.9228 24.1184 63.6648 24.142 63.3523 24.142C62.8788 24.142 62.4148 24.0402 61.9602 23.8366C61.5104 23.633 61.1364 23.3229 60.8381 22.9062C60.5445 22.4896 60.3977 21.964 60.3977 21.3295V10.4773ZM71.2393 24.2273C70.2545 24.2273 69.3904 23.9929 68.647 23.5241C67.9084 23.0554 67.3307 22.3996 66.9141 21.5568C66.5021 20.714 66.2962 19.7292 66.2962 18.6023C66.2962 17.4659 66.5021 16.474 66.9141 15.6264C67.3307 14.7789 67.9084 14.1207 68.647 13.652C69.3904 13.1832 70.2545 12.9489 71.2393 12.9489C72.2242 12.9489 73.0859 13.1832 73.8246 13.652C74.5679 14.1207 75.1456 14.7789 75.5575 15.6264C75.9742 16.474 76.1825 17.4659 76.1825 18.6023C76.1825 19.7292 75.9742 20.714 75.5575 21.5568C75.1456 22.3996 74.5679 23.0554 73.8246 23.5241C73.0859 23.9929 72.2242 24.2273 71.2393 24.2273ZM71.2393 22.7216C71.9875 22.7216 72.603 22.5298 73.0859 22.1463C73.5689 21.7628 73.9264 21.2585 74.1584 20.6335C74.3904 20.0085 74.5064 19.3314 74.5064 18.6023C74.5064 17.8731 74.3904 17.1937 74.1584 16.5639C73.9264 15.9342 73.5689 15.4252 73.0859 15.0369C72.603 14.6487 71.9875 14.4545 71.2393 14.4545C70.4912 14.4545 69.8757 14.6487 69.3928 15.0369C68.9098 15.4252 68.5523 15.9342 68.3203 16.5639C68.0883 17.1937 67.9723 17.8731 67.9723 18.6023C67.9723 19.3314 68.0883 20.0085 68.3203 20.6335C68.5523 21.2585 68.9098 21.7628 69.3928 22.1463C69.8757 22.5298 70.4912 22.7216 71.2393 22.7216ZM96.8661 16.7273C96.8661 18.2614 96.5891 19.5871 96.0352 20.7045C95.4812 21.822 94.7212 22.6837 93.7553 23.2898C92.7894 23.8958 91.6862 24.1989 90.4457 24.1989C89.2051 24.1989 88.1019 23.8958 87.136 23.2898C86.1701 22.6837 85.4102 21.822 84.8562 20.7045C84.3022 19.5871 84.0252 18.2614 84.0252 16.7273C84.0252 15.1932 84.3022 13.8674 84.8562 12.75C85.4102 11.6326 86.1701 10.7708 87.136 10.1648C88.1019 9.55871 89.2051 9.25568 90.4457 9.25568C91.6862 9.25568 92.7894 9.55871 93.7553 10.1648C94.7212 10.7708 95.4812 11.6326 96.0352 12.75C96.5891 13.8674 96.8661 15.1932 96.8661 16.7273ZM95.1616 16.7273C95.1616 15.4678 94.9509 14.4048 94.5295 13.5384C94.1128 12.6719 93.547 12.0161 92.832 11.571C92.1218 11.1259 91.3263 10.9034 90.4457 10.9034C89.565 10.9034 88.7672 11.1259 88.0522 11.571C87.342 12.0161 86.7762 12.6719 86.3548 13.5384C85.9381 14.4048 85.7298 15.4678 85.7298 16.7273C85.7298 17.9867 85.9381 19.0497 86.3548 19.9162C86.7762 20.7827 87.342 21.4384 88.0522 21.8835C88.7672 22.3286 89.565 22.5511 90.4457 22.5511C91.3263 22.5511 92.1218 22.3286 92.832 21.8835C93.547 21.4384 94.1128 20.7827 94.5295 19.9162C94.9509 19.0497 95.1616 17.9867 95.1616 16.7273ZM101.277 17.4375V24H99.6005V13.0909H101.22V14.7955H101.362C101.618 14.2415 102.006 13.7964 102.527 13.4602C103.047 13.1193 103.72 12.9489 104.544 12.9489C105.282 12.9489 105.929 13.1004 106.483 13.4034C107.037 13.7017 107.467 14.1562 107.775 14.767C108.083 15.3731 108.237 16.1402 108.237 17.0682V24H106.561V17.1818C106.561 16.3248 106.338 15.6572 105.893 15.179C105.448 14.696 104.837 14.4545 104.061 14.4545C103.526 14.4545 103.047 14.5705 102.626 14.8026C102.209 15.0346 101.88 15.3731 101.639 15.8182C101.397 16.2633 101.277 16.803 101.277 17.4375ZM112.976 9.45455V24H111.3V9.45455H112.976ZM116.046 24V13.0909H117.722V24H116.046ZM116.898 11.2727C116.571 11.2727 116.29 11.1615 116.053 10.9389C115.821 10.7164 115.705 10.4489 115.705 10.1364C115.705 9.82386 115.821 9.55634 116.053 9.33381C116.29 9.11127 116.571 9 116.898 9C117.225 9 117.504 9.11127 117.736 9.33381C117.973 9.55634 118.091 9.82386 118.091 10.1364C118.091 10.4489 117.973 10.7164 117.736 10.9389C117.504 11.1615 117.225 11.2727 116.898 11.2727ZM122.468 17.4375V24H120.792V13.0909H122.411V14.7955H122.553C122.809 14.2415 123.197 13.7964 123.718 13.4602C124.239 13.1193 124.911 12.9489 125.735 12.9489C126.474 12.9489 127.12 13.1004 127.674 13.4034C128.228 13.7017 128.659 14.1562 128.967 14.767C129.274 15.3731 129.428 16.1402 129.428 17.0682V24H127.752V17.1818C127.752 16.3248 127.53 15.6572 127.085 15.179C126.639 14.696 126.029 14.4545 125.252 14.4545C124.717 14.4545 124.239 14.5705 123.817 14.8026C123.401 15.0346 123.072 15.3731 122.83 15.8182C122.589 16.2633 122.468 16.803 122.468 17.4375ZM137.065 24.2273C136.014 24.2273 135.107 23.9953 134.345 23.5312C133.587 23.0625 133.002 22.4091 132.591 21.571C132.183 20.7282 131.98 19.7481 131.98 18.6307C131.98 17.5133 132.183 16.5284 132.591 15.6761C133.002 14.8191 133.575 14.1515 134.309 13.6733C135.048 13.1903 135.91 12.9489 136.895 12.9489C137.463 12.9489 138.024 13.0436 138.578 13.233C139.132 13.4223 139.636 13.7301 140.091 14.1562C140.545 14.5777 140.907 15.1364 141.177 15.8324C141.447 16.5284 141.582 17.3854 141.582 18.4034V19.1136H133.173V17.6648H139.877C139.877 17.0492 139.754 16.5 139.508 16.017C139.267 15.5341 138.921 15.1529 138.471 14.8736C138.026 14.5942 137.501 14.4545 136.895 14.4545C136.227 14.4545 135.649 14.6203 135.162 14.9517C134.679 15.2784 134.307 15.7045 134.047 16.2301C133.786 16.7557 133.656 17.3191 133.656 17.9205V18.8864C133.656 19.7102 133.798 20.4086 134.082 20.9815C134.371 21.5497 134.771 21.983 135.282 22.2812C135.794 22.5748 136.388 22.7216 137.065 22.7216C137.505 22.7216 137.903 22.66 138.258 22.5369C138.618 22.4091 138.928 22.2197 139.189 21.9688C139.449 21.7131 139.65 21.3958 139.792 21.017L141.412 21.4716C141.241 22.0208 140.955 22.5038 140.552 22.9205C140.15 23.3324 139.653 23.6544 139.061 23.8864C138.469 24.1136 137.804 24.2273 137.065 24.2273Z" fill="white"/>
</svg>
