<svg width="223" height="34" viewBox="0 0 223 34" fill="none" xmlns="http://www.w3.org/2000/svg">
<rect x="10" width="213" height="34" rx="10" fill="#0D423B"/>
<path d="M201.05 16.0381L199.191 17.8482C198.428 18.5905 198 19.5973 198 20.6471C198 21.6968 198.428 22.7036 199.191 23.4459C199.953 24.1883 200.987 24.6053 202.065 24.6053C203.143 24.6053 204.177 24.1883 204.94 23.4459L207.417 21.033C207.876 20.5853 208.219 20.0367 208.416 19.4334C208.613 18.83 208.658 18.1895 208.548 17.5655C208.439 16.9415 208.177 16.3523 207.784 15.8473C207.392 15.3424 206.881 14.9364 206.295 14.6634L205.501 15.4365C205.42 15.5151 205.35 15.6033 205.292 15.699C205.745 15.8259 206.157 16.0658 206.486 16.3949C206.814 16.7241 207.049 17.1311 207.167 17.5757C207.285 18.0204 207.282 18.4873 207.157 18.9303C207.033 19.3732 206.792 19.777 206.459 20.1015L203.983 22.5132C203.475 23.0083 202.785 23.2865 202.066 23.2865C201.347 23.2865 200.657 23.0083 200.149 22.5132C199.64 22.0181 199.354 21.3466 199.354 20.6464C199.354 19.9462 199.64 19.2747 200.149 18.7796L201.223 17.7347C201.071 17.1816 201.013 16.6095 201.05 16.0381Z" fill="white"/>
<path d="M203.585 13.571C203.125 14.0187 202.782 14.5672 202.585 15.1706C202.388 15.7739 202.343 16.4145 202.453 17.0385C202.563 17.6624 202.825 18.2516 203.217 18.7566C203.609 19.2616 204.12 19.6676 204.707 19.9406L205.757 18.9168C205.297 18.7968 204.878 18.5612 204.542 18.2337C204.206 17.9061 203.964 17.4982 203.841 17.0508C203.718 16.6034 203.718 16.1324 203.841 15.6851C203.964 15.2378 204.206 14.8299 204.543 14.5024L207.018 12.0908C207.527 11.5957 208.216 11.3175 208.935 11.3175C209.655 11.3175 210.344 11.5957 210.853 12.0908C211.361 12.5859 211.647 13.2574 211.647 13.9576C211.647 14.6577 211.361 15.3293 210.853 15.8244L209.778 16.8692C209.93 17.4233 209.988 17.9972 209.952 18.5672L211.811 16.7571C212.573 16.0148 213.001 15.008 213.001 13.9582C213.001 12.9084 212.573 11.9016 211.811 11.1593C211.048 10.417 210.014 10 208.936 10C207.858 10 206.824 10.417 206.062 11.1593L203.585 13.571Z" fill="white"/>
<path d="M21.7614 24V9.45455H26.6761C27.8172 9.45455 28.75 9.66051 29.4744 10.0724C30.2036 10.4796 30.7434 11.0312 31.0938 11.7273C31.4441 12.4233 31.6193 13.1998 31.6193 14.0568C31.6193 14.9138 31.4441 15.6927 31.0938 16.3935C30.7481 17.0942 30.2131 17.6529 29.4886 18.0696C28.7642 18.4815 27.8362 18.6875 26.7045 18.6875H23.1818V17.125H26.6477C27.429 17.125 28.0563 16.9901 28.5298 16.7202C29.0033 16.4503 29.3466 16.0857 29.5597 15.6264C29.7775 15.1624 29.8864 14.6392 29.8864 14.0568C29.8864 13.4744 29.7775 12.9536 29.5597 12.4943C29.3466 12.035 29.0009 11.6752 28.5227 11.4148C28.0445 11.1496 27.41 11.017 26.6193 11.017H23.5227V24H21.7614ZM34.2294 24V13.0909H35.8487V14.7386H35.9624C36.1612 14.1989 36.5211 13.7609 37.0419 13.4247C37.5627 13.0885 38.1499 12.9205 38.8033 12.9205C38.9264 12.9205 39.0803 12.9228 39.2649 12.9276C39.4496 12.9323 39.5893 12.9394 39.6839 12.9489V14.6534C39.6271 14.6392 39.4969 14.6179 39.2933 14.5895C39.0945 14.5563 38.8838 14.5398 38.6612 14.5398C38.1309 14.5398 37.6574 14.651 37.2408 14.8736C36.8288 15.0914 36.5021 15.3944 36.2607 15.7827C36.0239 16.1662 35.9055 16.6042 35.9055 17.0966V24H34.2294ZM45.7706 24.2273C44.7857 24.2273 43.9216 23.9929 43.1783 23.5241C42.4396 23.0554 41.862 22.3996 41.4453 21.5568C41.0334 20.714 40.8274 19.7292 40.8274 18.6023C40.8274 17.4659 41.0334 16.474 41.4453 15.6264C41.862 14.7789 42.4396 14.1207 43.1783 13.652C43.9216 13.1832 44.7857 12.9489 45.7706 12.9489C46.7554 12.9489 47.6172 13.1832 48.3558 13.652C49.0992 14.1207 49.6768 14.7789 50.0888 15.6264C50.5054 16.474 50.7138 17.4659 50.7138 18.6023C50.7138 19.7292 50.5054 20.714 50.0888 21.5568C49.6768 22.3996 49.0992 23.0554 48.3558 23.5241C47.6172 23.9929 46.7554 24.2273 45.7706 24.2273ZM45.7706 22.7216C46.5187 22.7216 47.1342 22.5298 47.6172 22.1463C48.1001 21.7628 48.4576 21.2585 48.6896 20.6335C48.9216 20.0085 49.0376 19.3314 49.0376 18.6023C49.0376 17.8731 48.9216 17.1937 48.6896 16.5639C48.4576 15.9342 48.1001 15.4252 47.6172 15.0369C47.1342 14.6487 46.5187 14.4545 45.7706 14.4545C45.0225 14.4545 44.407 14.6487 43.924 15.0369C43.4411 15.4252 43.0836 15.9342 42.8516 16.5639C42.6196 17.1937 42.5036 17.8731 42.5036 18.6023C42.5036 19.3314 42.6196 20.0085 42.8516 20.6335C43.0836 21.2585 43.4411 21.7628 43.924 22.1463C44.407 22.5298 45.0225 22.7216 45.7706 22.7216ZM53.2724 13.0909H54.9485V24.7955C54.9485 25.4678 54.8325 26.0502 54.6005 26.5426C54.3732 27.035 54.0276 27.4162 53.5636 27.6861C53.1043 27.956 52.5243 28.0909 51.8235 28.0909C51.7667 28.0909 51.7099 28.0909 51.6531 28.0909C51.5962 28.0909 51.5394 28.0909 51.4826 28.0909V26.5284C51.5394 26.5284 51.5915 26.5284 51.6388 26.5284C51.6862 26.5284 51.7383 26.5284 51.7951 26.5284C52.3065 26.5284 52.6805 26.3769 52.9173 26.0739C53.154 25.7756 53.2724 25.3494 53.2724 24.7955V13.0909ZM54.0962 11.2727C53.7695 11.2727 53.4878 11.1615 53.2511 10.9389C53.0191 10.7164 52.9031 10.4489 52.9031 10.1364C52.9031 9.82386 53.0191 9.55634 53.2511 9.33381C53.4878 9.11127 53.7695 9 54.0962 9C54.4229 9 54.7023 9.11127 54.9343 9.33381C55.171 9.55634 55.2894 9.82386 55.2894 10.1364C55.2894 10.4489 55.171 10.7164 54.9343 10.9389C54.7023 11.1615 54.4229 11.2727 54.0962 11.2727ZM62.5923 24.2273C61.5412 24.2273 60.6345 23.9953 59.8722 23.5312C59.1146 23.0625 58.5298 22.4091 58.1179 21.571C57.7107 20.7282 57.5071 19.7481 57.5071 18.6307C57.5071 17.5133 57.7107 16.5284 58.1179 15.6761C58.5298 14.8191 59.1027 14.1515 59.8366 13.6733C60.5753 13.1903 61.437 12.9489 62.4219 12.9489C62.9901 12.9489 63.5511 13.0436 64.1051 13.233C64.6591 13.4223 65.1634 13.7301 65.6179 14.1562C66.0724 14.5777 66.4347 15.1364 66.7045 15.8324C66.9744 16.5284 67.1094 17.3854 67.1094 18.4034V19.1136H58.7003V17.6648H65.4048C65.4048 17.0492 65.2817 16.5 65.0355 16.017C64.794 15.5341 64.4484 15.1529 63.9986 14.8736C63.5535 14.5942 63.0279 14.4545 62.4219 14.4545C61.7543 14.4545 61.1766 14.6203 60.6889 14.9517C60.206 15.2784 59.8343 15.7045 59.5739 16.2301C59.3134 16.7557 59.1832 17.3191 59.1832 17.9205V18.8864C59.1832 19.7102 59.3253 20.4086 59.6094 20.9815C59.8982 21.5497 60.2983 21.983 60.8097 22.2812C61.321 22.5748 61.9152 22.7216 62.5923 22.7216C63.0327 22.7216 63.4304 22.66 63.7855 22.5369C64.1454 22.4091 64.4555 22.2197 64.7159 21.9688C64.9763 21.7131 65.1776 21.3958 65.3196 21.017L66.9389 21.4716C66.7685 22.0208 66.482 22.5038 66.0795 22.9205C65.6771 23.3324 65.1799 23.6544 64.5881 23.8864C63.9962 24.1136 63.331 24.2273 62.5923 24.2273ZM74.4034 13.0909V14.5114H68.75V13.0909H74.4034ZM70.3977 10.4773H72.0739V20.875C72.0739 21.3485 72.1425 21.7036 72.2798 21.9403C72.4219 22.1723 72.6018 22.3286 72.8196 22.4091C73.0421 22.4848 73.2765 22.5227 73.5227 22.5227C73.7074 22.5227 73.8589 22.5133 73.9773 22.4943C74.0956 22.4706 74.1903 22.4517 74.2614 22.4375L74.6023 23.9432C74.4886 23.9858 74.33 24.0284 74.1264 24.071C73.9228 24.1184 73.6648 24.142 73.3523 24.142C72.8788 24.142 72.4148 24.0402 71.9602 23.8366C71.5104 23.633 71.1364 23.3229 70.8381 22.9062C70.5445 22.4896 70.3977 21.964 70.3977 21.3295V10.4773ZM81.2393 24.2273C80.2545 24.2273 79.3904 23.9929 78.647 23.5241C77.9084 23.0554 77.3307 22.3996 76.9141 21.5568C76.5021 20.714 76.2962 19.7292 76.2962 18.6023C76.2962 17.4659 76.5021 16.474 76.9141 15.6264C77.3307 14.7789 77.9084 14.1207 78.647 13.652C79.3904 13.1832 80.2545 12.9489 81.2393 12.9489C82.2242 12.9489 83.0859 13.1832 83.8246 13.652C84.5679 14.1207 85.1456 14.7789 85.5575 15.6264C85.9742 16.474 86.1825 17.4659 86.1825 18.6023C86.1825 19.7292 85.9742 20.714 85.5575 21.5568C85.1456 22.3996 84.5679 23.0554 83.8246 23.5241C83.0859 23.9929 82.2242 24.2273 81.2393 24.2273ZM81.2393 22.7216C81.9875 22.7216 82.603 22.5298 83.0859 22.1463C83.5689 21.7628 83.9264 21.2585 84.1584 20.6335C84.3904 20.0085 84.5064 19.3314 84.5064 18.6023C84.5064 17.8731 84.3904 17.1937 84.1584 16.5639C83.9264 15.9342 83.5689 15.4252 83.0859 15.0369C82.603 14.6487 81.9875 14.4545 81.2393 14.4545C80.4912 14.4545 79.8757 14.6487 79.3928 15.0369C78.9098 15.4252 78.5523 15.9342 78.3203 16.5639C78.0883 17.1937 77.9723 17.8731 77.9723 18.6023C77.9723 19.3314 78.0883 20.0085 78.3203 20.6335C78.5523 21.2585 78.9098 21.7628 79.3928 22.1463C79.8757 22.5298 80.4912 22.7216 81.2393 22.7216ZM95.19 24H93.3434L98.6843 9.45455H100.502L105.843 24H103.997L99.6502 11.7557H99.5366L95.19 24ZM95.8718 18.3182H103.315V19.8807H95.8718V18.3182ZM112.001 24.2273C111.092 24.2273 110.289 23.9976 109.593 23.5384C108.897 23.0743 108.353 22.4209 107.96 21.5781C107.567 20.7306 107.37 19.7292 107.37 18.5739C107.37 17.428 107.567 16.4337 107.96 15.5909C108.353 14.7481 108.9 14.0971 109.6 13.6378C110.301 13.1785 111.111 12.9489 112.029 12.9489C112.74 12.9489 113.301 13.0672 113.713 13.304C114.129 13.536 114.447 13.8011 114.664 14.0994C114.887 14.393 115.06 14.6345 115.183 14.8239H115.325V9.45455H117.001V24H115.382V22.3239H115.183C115.06 22.5227 114.885 22.7737 114.657 23.0767C114.43 23.375 114.106 23.6425 113.684 23.8793C113.263 24.1113 112.702 24.2273 112.001 24.2273ZM112.228 22.7216C112.901 22.7216 113.469 22.5464 113.933 22.196C114.397 21.8409 114.75 21.3509 114.991 20.7259C115.233 20.0961 115.353 19.3693 115.353 18.5455C115.353 17.7311 115.235 17.0185 114.998 16.4077C114.761 15.7921 114.411 15.3139 113.947 14.973C113.483 14.6274 112.91 14.4545 112.228 14.4545C111.518 14.4545 110.926 14.6368 110.453 15.0014C109.984 15.3613 109.631 15.8513 109.395 16.4716C109.163 17.0871 109.047 17.7784 109.047 18.5455C109.047 19.322 109.165 20.0275 109.402 20.6619C109.643 21.2917 109.998 21.7936 110.467 22.1676C110.94 22.5369 111.528 22.7216 112.228 22.7216ZM124.735 24.2273C123.751 24.2273 122.886 23.9929 122.143 23.5241C121.404 23.0554 120.827 22.3996 120.41 21.5568C119.998 20.714 119.792 19.7292 119.792 18.6023C119.792 17.4659 119.998 16.474 120.41 15.6264C120.827 14.7789 121.404 14.1207 122.143 13.652C122.886 13.1832 123.751 12.9489 124.735 12.9489C125.72 12.9489 126.582 13.1832 127.321 13.652C128.064 14.1207 128.642 14.7789 129.054 15.6264C129.47 16.474 129.679 17.4659 129.679 18.6023C129.679 19.7292 129.47 20.714 129.054 21.5568C128.642 22.3996 128.064 23.0554 127.321 23.5241C126.582 23.9929 125.72 24.2273 124.735 24.2273ZM124.735 22.7216C125.484 22.7216 126.099 22.5298 126.582 22.1463C127.065 21.7628 127.422 21.2585 127.654 20.6335C127.886 20.0085 128.002 19.3314 128.002 18.6023C128.002 17.8731 127.886 17.1937 127.654 16.5639C127.422 15.9342 127.065 15.4252 126.582 15.0369C126.099 14.6487 125.484 14.4545 124.735 14.4545C123.987 14.4545 123.372 14.6487 122.889 15.0369C122.406 15.4252 122.048 15.9342 121.816 16.5639C121.584 17.1937 121.468 17.8731 121.468 18.6023C121.468 19.3314 121.584 20.0085 121.816 20.6335C122.048 21.2585 122.406 21.7628 122.889 22.1463C123.372 22.5298 123.987 22.7216 124.735 22.7216ZM132.464 24V9.45455H134.141V14.8239H134.283C134.406 14.6345 134.576 14.393 134.794 14.0994C135.017 13.8011 135.334 13.536 135.746 13.304C136.162 13.0672 136.726 12.9489 137.436 12.9489C138.355 12.9489 139.164 13.1785 139.865 13.6378C140.566 14.0971 141.113 14.7481 141.506 15.5909C141.899 16.4337 142.095 17.428 142.095 18.5739C142.095 19.7292 141.899 20.7306 141.506 21.5781C141.113 22.4209 140.568 23.0743 139.872 23.5384C139.176 23.9976 138.374 24.2273 137.464 24.2273C136.764 24.2273 136.203 24.1113 135.781 23.8793C135.36 23.6425 135.036 23.375 134.808 23.0767C134.581 22.7737 134.406 22.5227 134.283 22.3239H134.084V24H132.464ZM134.112 18.5455C134.112 19.3693 134.233 20.0961 134.474 20.7259C134.716 21.3509 135.069 21.8409 135.533 22.196C135.997 22.5464 136.565 22.7216 137.237 22.7216C137.938 22.7216 138.523 22.5369 138.991 22.1676C139.465 21.7936 139.82 21.2917 140.057 20.6619C140.298 20.0275 140.419 19.322 140.419 18.5455C140.419 17.7784 140.301 17.0871 140.064 16.4716C139.832 15.8513 139.479 15.3613 139.006 15.0014C138.537 14.6368 137.947 14.4545 137.237 14.4545C136.555 14.4545 135.982 14.6274 135.518 14.973C135.054 15.3139 134.704 15.7921 134.467 16.4077C134.231 17.0185 134.112 17.7311 134.112 18.5455ZM149.233 24.2273C148.182 24.2273 147.275 23.9953 146.513 23.5312C145.755 23.0625 145.17 22.4091 144.759 21.571C144.351 20.7282 144.148 19.7481 144.148 18.6307C144.148 17.5133 144.351 16.5284 144.759 15.6761C145.17 14.8191 145.743 14.1515 146.477 13.6733C147.216 13.1903 148.078 12.9489 149.062 12.9489C149.631 12.9489 150.192 13.0436 150.746 13.233C151.3 13.4223 151.804 13.7301 152.259 14.1562C152.713 14.5777 153.075 15.1364 153.345 15.8324C153.615 16.5284 153.75 17.3854 153.75 18.4034V19.1136H145.341V17.6648H152.045C152.045 17.0492 151.922 16.5 151.676 16.017C151.435 15.5341 151.089 15.1529 150.639 14.8736C150.194 14.5942 149.669 14.4545 149.062 14.4545C148.395 14.4545 147.817 14.6203 147.33 14.9517C146.847 15.2784 146.475 15.7045 146.214 16.2301C145.954 16.7557 145.824 17.3191 145.824 17.9205V18.8864C145.824 19.7102 145.966 20.4086 146.25 20.9815C146.539 21.5497 146.939 21.983 147.45 22.2812C147.962 22.5748 148.556 22.7216 149.233 22.7216C149.673 22.7216 150.071 22.66 150.426 22.5369C150.786 22.4091 151.096 22.2197 151.357 21.9688C151.617 21.7131 151.818 21.3958 151.96 21.017L153.58 21.4716C153.409 22.0208 153.123 22.5038 152.72 22.9205C152.318 23.3324 151.821 23.6544 151.229 23.8864C150.637 24.1136 149.972 24.2273 149.233 24.2273ZM163.004 9.45455L166.754 15.5057H166.868L170.618 9.45455H172.692L168.118 16.7273L172.692 24H170.618L166.868 18.0625H166.754L163.004 24H160.93L165.618 16.7273L160.93 9.45455H163.004ZM179.473 24H174.984V9.45455H179.672C181.083 9.45455 182.29 9.74574 183.294 10.3281C184.297 10.9058 185.067 11.7367 185.602 12.821C186.137 13.9006 186.404 15.1932 186.404 16.6989C186.404 18.214 186.135 19.5185 185.595 20.6122C185.055 21.7012 184.269 22.5393 183.237 23.1264C182.205 23.7088 180.95 24 179.473 24ZM176.745 22.4375H179.359C180.562 22.4375 181.558 22.2055 182.349 21.7415C183.14 21.2775 183.729 20.617 184.118 19.7599C184.506 18.9029 184.7 17.8826 184.7 16.6989C184.7 15.5246 184.508 14.5137 184.125 13.6662C183.741 12.8139 183.168 12.1605 182.406 11.706C181.644 11.2467 180.694 11.017 179.558 11.017H176.745V22.4375Z" fill="white"/>
</svg>
