<svg id="instagram" xmlns="http://www.w3.org/2000/svg" width="26.284" height="26.273" viewBox="0 0 26.284 26.273">
  <path id="Caminho_357" data-name="Caminho 357" d="M55.333,40.6c0,1.168.01,2.336-.005,3.5-.01.737-.042,1.479-.078,2.216a9.212,9.212,0,0,1-.478,2.569,6.676,6.676,0,0,1-3.67,4.038,7.978,7.978,0,0,1-2.18.612,17.927,17.927,0,0,1-1.827.145c-2.377.088-4.749.052-7.127.052-.737,0-1.479-.016-2.216-.036-.581-.021-1.163-.047-1.739-.093a8.592,8.592,0,0,1-2.865-.742,6.734,6.734,0,0,1-3.171-3.14,8.4,8.4,0,0,1-.67-2.149,16.048,16.048,0,0,1-.187-2.118c-.088-2.73-.057-5.466-.036-8.2.005-.794.042-1.588.083-2.382a9.729,9.729,0,0,1,.472-2.554,6.726,6.726,0,0,1,2.149-3.114,6.563,6.563,0,0,1,2.087-1.147,9.614,9.614,0,0,1,1.827-.42,16.13,16.13,0,0,1,1.661-.114c2.45-.088,4.9-.052,7.35-.047,1,.005,2,.042,2.995.078A10.078,10.078,0,0,1,50.34,28,6.725,6.725,0,0,1,54,30.734a7.015,7.015,0,0,1,.914,2.066,9.4,9.4,0,0,1,.306,1.78c.1,1.313.114,2.626.119,3.94.005.7,0,1.4,0,2.1C55.338,40.6,55.333,40.6,55.333,40.6ZM52.966,40.6h0c0-.95.005-1.9,0-2.85-.005-1.012-.026-2.019-.109-3.026a6.572,6.572,0,0,0-.4-1.843,4.237,4.237,0,0,0-2.346-2.455,6.252,6.252,0,0,0-2.149-.483c-.638-.042-1.282-.067-1.92-.083-.753-.016-1.51-.026-2.263-.021-2.2,0-4.4-.031-6.592.062a10.142,10.142,0,0,0-1.9.213,4.916,4.916,0,0,0-1.557.607,4.334,4.334,0,0,0-1.843,2.346,7.147,7.147,0,0,0-.353,1.946c-.042.768-.073,1.536-.078,2.31-.016,2.05-.01,4.111-.01,6.166,0,1,.026,2,.109,2.995a6.586,6.586,0,0,0,.41,1.863,4.262,4.262,0,0,0,2.123,2.336,5.664,5.664,0,0,0,2.1.555c.535.047,1.074.078,1.614.093.965.026,1.936.036,2.9.042,1.37.005,2.741,0,4.111-.005,1.1-.005,2.19-.021,3.28-.109a6.383,6.383,0,0,0,1.786-.384,4.31,4.31,0,0,0,2.538-2.44,6.419,6.419,0,0,0,.467-2.247c.042-.789.073-1.583.078-2.372C52.977,42.74,52.966,41.67,52.966,40.6Z" transform="translate(-29.062 -27.473)" fill="#fff"/>
  <path id="Caminho_358" data-name="Caminho 358" d="M152.4,157.137a6.745,6.745,0,1,1,6.742,6.753A6.739,6.739,0,0,1,152.4,157.137Zm11.123.01a4.378,4.378,0,1,0-4.381,4.381A4.382,4.382,0,0,0,163.523,157.147Z" transform="translate(-145.998 -144.019)" fill="#fff"/>
  <path id="Caminho_359" data-name="Caminho 359" d="M388.588,114.9A1.575,1.575,0,1,1,387,116.462,1.566,1.566,0,0,1,388.588,114.9Z" transform="translate(-368.421 -110.362)" fill="#fff"/>
</svg>
