<svg xmlns="http://www.w3.org/2000/svg" width="39.52" height="28.52" viewBox="0 0 39.52 28.52">
  <path id="mail" d="M46.616,82.7H14.7a3.8,3.8,0,0,0-3.8,3.8v20.913a3.8,3.8,0,0,0,3.8,3.8H46.616a3.8,3.8,0,0,0,3.8-3.8V86.5A3.8,3.8,0,0,0,46.616,82.7ZM31.629,97.746a1.565,1.565,0,0,1-1.924,0L15.541,85.395H45.794ZM13.595,87.282,24.382,96.7l-6.425,6.029a1.309,1.309,0,0,0-.426.94,1.4,1.4,0,0,0,.352.955l.007.007a1.349,1.349,0,0,0,1.909.059l6.623-6.22,1.5,1.3a4.257,4.257,0,0,0,5.471-.007l1.5-1.3,6.623,6.22a1.324,1.324,0,0,0,.925.374,1.342,1.342,0,0,0,1.344-1.388,1.325,1.325,0,0,0-.426-.94l-6.432-6.036,10.8-9.414v20.142a1.113,1.113,0,0,1-1.109,1.109H14.7a1.113,1.113,0,0,1-1.109-1.109V87.282Z" transform="translate(-10.9 -82.7)" fill="#0056ff"/>
</svg>
