<svg xmlns="http://www.w3.org/2000/svg" width="44.039" height="44.387" viewBox="0 0 44.039 44.387">
  <g id="whatsapp" transform="translate(-26.3 -16)">
    <path id="Caminho_84" data-name="Caminho 84" d="M178.769,157.674a12.881,12.881,0,0,0-2.79-1.26c-.243,0-.739.469-1.487,1.4s-1.26,1.4-1.556,1.4A1.266,1.266,0,0,1,172.3,159a18.151,18.151,0,0,1-4.329-2.895,12.84,12.84,0,0,1-2.93-3.929.783.783,0,0,1-.156-.435c0-.191.33-.635.982-1.33a2.959,2.959,0,0,0,.982-1.634,17.6,17.6,0,0,0-.722-2.156c-.487-1.313-.791-2.138-.948-2.538a2.181,2.181,0,0,0-.452-.791,1.217,1.217,0,0,0-.756-.191,3.88,3.88,0,0,1-.548-.052A3.7,3.7,0,0,0,162.9,143a2.137,2.137,0,0,0-1.486.635,6.284,6.284,0,0,0-2.121,4.538v.226a9.977,9.977,0,0,0,2.034,5.555,37.763,37.763,0,0,0,4.242,5.311,16.32,16.32,0,0,0,4.877,3.382c2.556,1.191,4.364,1.773,5.451,1.773a6.976,6.976,0,0,0,2.93-.756,3.88,3.88,0,0,0,2.034-1.878,5.983,5.983,0,0,0,.487-2.191.985.985,0,0,0-.07-.435A11.105,11.105,0,0,0,178.769,157.674Z" transform="translate(-121.435 -115.96)" fill="#0056ff"/>
    <path id="Caminho_85" data-name="Caminho 85" d="M68.618,29.24a21.548,21.548,0,0,0-4.625-6.894A22.183,22.183,0,0,0,57.1,17.721a21.261,21.261,0,0,0-16.76,0,21.633,21.633,0,0,0-6.9,4.625,22.183,22.183,0,0,0-4.625,6.894,21.452,21.452,0,0,0,1.382,19.533L26.3,60.387l11.953-3.825a21.347,21.347,0,0,0,10.466,2.686,20.749,20.749,0,0,0,8.38-1.721A21.548,21.548,0,0,0,63.993,52.9a22.183,22.183,0,0,0,4.625-6.894,21.19,21.19,0,0,0,1.721-8.4A20.889,20.889,0,0,0,68.618,29.24ZM65.306,44.626a18.452,18.452,0,0,1-3.842,5.746A17.947,17.947,0,0,1,55.7,54.215a17.8,17.8,0,0,1-16.865-1.547L31.89,54.875l2.278-6.694a17.845,17.845,0,0,1-2-17.534,17.7,17.7,0,0,1,9.606-9.588,17.7,17.7,0,0,1,13.961,0A18.738,18.738,0,0,1,61.5,24.9a18.351,18.351,0,0,1,3.842,5.746,17.662,17.662,0,0,1,1.434,6.981A18.346,18.346,0,0,1,65.306,44.626Z" fill="#0056ff"/>
  </g>
</svg>
