<svg xmlns="http://www.w3.org/2000/svg" width="325" height="55.839" viewBox="0 0 325 55.839">
  <g id="Grupo_365" data-name="Grupo 365" transform="translate(0 575.912)">
    <path id="Caminho_1873" data-name="Caminho 1873" d="M1182.972-384.911a1.525,1.525,0,0,0-.093-1.465,1.524,1.524,0,0,0-1.286-.707H1170.64a13.412,13.412,0,0,0-13.412,13.412v4.179a13.412,13.412,0,0,0,13.412,13.412l8.9.038c2.458,0,2.947-.264,3.227-.7a1.523,1.523,0,0,0,.095-1.467l-1.207-2.573a3.047,3.047,0,0,0-2.744-1.754c-2.7-.014-8.271-.038-8.271-.038a7.391,7.391,0,0,1-6.913-6.915v-4.179a6.913,6.913,0,0,1,6.915-6.915h6.429c3.118,0,4.193-.68,4.7-1.754Z" transform="translate(-1045.051 -170.523)" fill="#0056ff" fill-rule="evenodd"/>
    <path id="Caminho_1874" data-name="Caminho 1874" d="M1457.436-374.3h-11.966a9.372,9.372,0,0,0-6.626,2.744,9.37,9.37,0,0,0-2.744,6.626h0a9.37,9.37,0,0,0,9.37,9.37h10.13a8.323,8.323,0,0,0,5.886-2.439,8.324,8.324,0,0,0,2.44-5.888v-14.335a8.326,8.326,0,0,0-2.44-5.888,8.325,8.325,0,0,0-5.886-2.438h-12.565a3.047,3.047,0,0,0-2.759,1.753l-1.208,2.571a1.525,1.525,0,0,0,.094,1.464,1.523,1.523,0,0,0,1.285.707H1455.6a1.833,1.833,0,0,1,1.294.537,1.833,1.833,0,0,1,.536,1.3Zm0,6.494h-11.966a2.877,2.877,0,0,0-2.04.842,2.878,2.878,0,0,0-.843,2.04h0a2.876,2.876,0,0,0,2.876,2.876h10.13a1.832,1.832,0,0,0,1.295-.537,1.833,1.833,0,0,0,.536-1.3Z" transform="translate(-1296.888 -171.008)" fill="#0056ff" fill-rule="evenodd"/>
    <path id="Caminho_1875" data-name="Caminho 1875" d="M3071.976-367.8h11.966a9.371,9.371,0,0,0,9.371-9.371h0a9.369,9.369,0,0,0-2.745-6.627,9.37,9.37,0,0,0-6.626-2.743h-9.11a9.343,9.343,0,0,0-9.342,9.342v12.3a9.344,9.344,0,0,0,9.342,9.343h12.937a3.049,3.049,0,0,0,2.759-1.752l1.206-2.572a1.527,1.527,0,0,0-.092-1.465,1.523,1.523,0,0,0-1.287-.707h-15.537a2.847,2.847,0,0,1-2.848-2.847Zm0-6.494h11.966a2.876,2.876,0,0,0,2.875-2.876h0a2.869,2.869,0,0,0-.843-2.04,2.872,2.872,0,0,0-2.033-.843h-9.111a2.847,2.847,0,0,0-2.847,2.847Z" transform="translate(-2768.313 -171.007)" fill="#0056ff" fill-rule="evenodd"/>
    <path id="Caminho_1876" data-name="Caminho 1876" d="M1947.384-472.458V-483.4a1.524,1.524,0,0,0-.707-1.286,1.524,1.524,0,0,0-1.465-.094l-2.571,1.206a3.047,3.047,0,0,0-1.753,2.759v5.625h-7.928a13.406,13.406,0,0,0-13.406,13.406v3.977A13.406,13.406,0,0,0,1932.96-444.4h6.1a8.327,8.327,0,0,0,8.327-8.327v-19.74Zm-6.494,3.771h-7.927a6.912,6.912,0,0,0-6.911,6.911v3.979a6.912,6.912,0,0,0,6.911,6.912h6.1a1.832,1.832,0,0,0,1.832-1.832Z" transform="translate(-1733.471 -82.173)" fill="#0056ff" fill-rule="evenodd"/>
    <path id="Caminho_1877" data-name="Caminho 1877" d="M2272.539-386.546a1.524,1.524,0,0,0-1.078.446,1.522,1.522,0,0,0-.445,1.077v21.138a1.829,1.829,0,0,1-.544,1.3,1.83,1.83,0,0,1-1.3.537h-6.095a6.912,6.912,0,0,1-6.912-6.912v-16.059a1.528,1.528,0,0,0-.446-1.077,1.524,1.524,0,0,0-1.078-.446H2251.2a1.527,1.527,0,0,0-1.079.446,1.529,1.529,0,0,0-.445,1.077v16.059a13.407,13.407,0,0,0,13.4,13.406h6.094a8.325,8.325,0,0,0,5.888-2.44,8.323,8.323,0,0,0,2.44-5.888v-21.138a1.526,1.526,0,0,0-.447-1.077,1.52,1.52,0,0,0-1.077-.446Z" transform="translate(-2031.599 -171.007)" fill="#0056ff" fill-rule="evenodd"/>
    <path id="Caminho_1878" data-name="Caminho 1878" d="M2596.11-383.282a13.354,13.354,0,0,0-8.767-3.263H2584.1a8.328,8.328,0,0,0-5.888,2.438,8.328,8.328,0,0,0-2.438,5.888v21.138a1.523,1.523,0,0,0,.446,1.077,1.521,1.521,0,0,0,1.077.446h3.447a1.525,1.525,0,0,0,1.525-1.524v-21.138a1.829,1.829,0,0,1,.544-1.3,1.832,1.832,0,0,1,1.295-.537h3.241a6.912,6.912,0,0,1,6.912,6.912v16.059a1.524,1.524,0,0,0,1.524,1.524h3.587a1.525,1.525,0,0,0,1.525-1.525v-21.138a1.834,1.834,0,0,1,.537-1.3,1.833,1.833,0,0,1,1.294-.537h3.243a6.912,6.912,0,0,1,6.912,6.912v16.059a1.523,1.523,0,0,0,.446,1.077,1.525,1.525,0,0,0,1.077.446h3.448a1.524,1.524,0,0,0,1.077-.446,1.525,1.525,0,0,0,.448-1.077v-16.059a13.406,13.406,0,0,0-13.406-13.406h-3.242a8.326,8.326,0,0,0-5.889,2.439A8.3,8.3,0,0,0,2596.11-383.282Z" transform="translate(-2326.077 -171.008)" fill="#0056ff" fill-rule="evenodd"/>
    <path id="Caminho_1879" data-name="Caminho 1879" d="M1776.248-386.545h-5.083a8.326,8.326,0,0,0-5.886,2.438,8.328,8.328,0,0,0-2.44,5.888v21.138a1.522,1.522,0,0,0,.446,1.077,1.524,1.524,0,0,0,1.078.446h3.447a1.52,1.52,0,0,0,1.077-.446,1.523,1.523,0,0,0,.447-1.077v-21.138a1.836,1.836,0,0,1,.536-1.3,1.832,1.832,0,0,1,1.294-.537h3.347a3.047,3.047,0,0,0,2.759-1.753c.371-.791.816-1.735,1.206-2.571a1.52,1.52,0,0,0-.092-1.465,1.523,1.523,0,0,0-1.287-.707Z" transform="translate(-1591.953 -171.008)" fill="#0056ff" fill-rule="evenodd"/>
    <path id="Caminho_1880" data-name="Caminho 1880" d="M209.052-529.538a1.125,1.125,0,0,0-1.125-1.125h-7.3a1.125,1.125,0,0,0-1.125,1.125v7.3a1.125,1.125,0,0,0,1.125,1.125h7.3a1.124,1.124,0,0,0,1.125-1.125Zm-21.4,1.4a.7.7,0,0,1,.7-.7h4.5a.7.7,0,0,1,.7.7v4.5a.7.7,0,0,1-.7.7h-4.5a.7.7,0,0,1-.7-.7Zm9.134-12.263a1.125,1.125,0,0,0-1.125-1.125h-7.3a1.125,1.125,0,0,0-1.125,1.125v7.3a1.125,1.125,0,0,0,1.125,1.125h7.3a1.124,1.124,0,0,0,1.125-1.125Zm-15.45,1.565a.7.7,0,0,0-.7-.7h-4.5a.7.7,0,0,0-.7.7v4.505a.7.7,0,0,0,.7.7h4.5a.7.7,0,0,0,.7-.7Zm-5.914-12.774a1.125,1.125,0,0,1,1.125-1.125h7.3a1.125,1.125,0,0,1,1.125,1.125v7.3a1.125,1.125,0,0,1-1.125,1.125h-7.3a1.125,1.125,0,0,1-1.125-1.125Zm15.462.188a.7.7,0,0,1,.7-.7h4.5a.7.7,0,0,1,.7.7v4.5a.7.7,0,0,1-.7.7h-4.5a.7.7,0,0,1-.7-.7Zm-30.935-22.66v16.143a1.126,1.126,0,0,0,1.126,1.126h7.3a1.125,1.125,0,0,0,1.125-1.125V-568.2a7.707,7.707,0,0,0-7.707-7.707h-.014a1.829,1.829,0,0,0-1.295.536,1.829,1.829,0,0,0-.536,1.295Zm36.884,8.839a1.125,1.125,0,0,0-1.125-1.125h-7.3a1.125,1.125,0,0,0-1.125,1.125v7.3a1.125,1.125,0,0,0,1.125,1.125h7.3a1.124,1.124,0,0,0,1.125-1.125Zm-21.4,1.4a.7.7,0,0,1,.7-.7h4.505a.7.7,0,0,1,.7.7v4.505a.7.7,0,0,1-.7.7h-4.505a.7.7,0,0,1-.7-.7Z" transform="translate(-144.445)" fill="#0056ff" fill-rule="evenodd"/>
    <path id="Caminho_1881" data-name="Caminho 1881" d="M1.829-336.837h22.08a1.125,1.125,0,0,1,1.125,1.125v5.5a1.125,1.125,0,0,1-1.125,1.125H5.748A5.748,5.748,0,0,1,0-334.838v-.171A1.829,1.829,0,0,1,.536-336.3,1.829,1.829,0,0,1,1.829-336.837Z" transform="translate(0 -215.899)" fill="#0056ff" fill-rule="evenodd"/>
    <path id="Caminho_1882" data-name="Caminho 1882" d="M626.674-430.451a16.478,16.478,0,0,0,11.653-4.826,16.479,16.479,0,0,0,4.825-11.652v-13.25a16.479,16.479,0,0,0-4.826-11.652,16.48,16.48,0,0,0-11.652-4.826H608.432a1.125,1.125,0,0,0-.8.329,1.124,1.124,0,0,0-.329.8v5.4a1.124,1.124,0,0,0,.329.8,1.124,1.124,0,0,0,.8.329h18.1a8.928,8.928,0,0,1,6.312,2.615,8.927,8.927,0,0,1,2.615,6.312v13.054a8.927,8.927,0,0,1-2.615,6.312,8.927,8.927,0,0,1-6.312,2.615H620.1a1.124,1.124,0,0,0-.8.329,1.125,1.125,0,0,0-.329.8v5.4a1.124,1.124,0,0,0,.329.8,1.124,1.124,0,0,0,.8.329Z" transform="translate(-548.436 -89.63)" fill="#0056ff" fill-rule="evenodd"/>
    <path id="Caminho_1883" data-name="Caminho 1883" d="M670.138-335.712a1.124,1.124,0,0,1,1.125-1.125h7.3a1.125,1.125,0,0,1,1.125,1.125v7.3a1.125,1.125,0,0,1-1.125,1.125h-7.3a1.125,1.125,0,0,1-1.125-1.125Z" transform="translate(-605.175 -215.899)" fill="#00b0ff" fill-rule="evenodd"/>
  </g>
</svg>
