<svg xmlns="http://www.w3.org/2000/svg" width="405" height="69.583" viewBox="0 0 405 69.583">
  <g id="Grupo_365" data-name="Grupo 365" transform="translate(0 575.912)">
    <path id="Caminho_1873" data-name="Caminho 1873" d="M1189.309-384.377a1.9,1.9,0,0,0-.115-1.825,1.9,1.9,0,0,0-1.6-.881h-13.649a16.713,16.713,0,0,0-16.713,16.713v5.207a16.713,16.713,0,0,0,16.713,16.713l11.091.047c3.064,0,3.672-.329,4.021-.878a1.9,1.9,0,0,0,.118-1.828l-1.5-3.206a3.8,3.8,0,0,0-3.419-2.186c-3.371-.017-10.306-.048-10.306-.048a9.21,9.21,0,0,1-8.615-8.617v-5.207a8.615,8.615,0,0,1,8.617-8.617h8.012c3.885,0,5.226-.847,5.851-2.186Z" transform="translate(-1017.438 -166.018)" fill="#fff" fill-rule="evenodd"/>
    <path id="Caminho_1874" data-name="Caminho 1874" d="M1462.688-371.285h-14.912a11.678,11.678,0,0,0-8.258,3.42,11.677,11.677,0,0,0-3.419,8.257h0a11.677,11.677,0,0,0,11.677,11.677H1460.4a10.372,10.372,0,0,0,7.335-3.039,10.374,10.374,0,0,0,3.04-7.338v-17.864a10.375,10.375,0,0,0-3.04-7.337,10.374,10.374,0,0,0-7.335-3.038h-15.658a3.8,3.8,0,0,0-3.438,2.185l-1.5,3.2a1.9,1.9,0,0,0,.117,1.825,1.9,1.9,0,0,0,1.6.881H1460.4a2.284,2.284,0,0,1,1.613.669,2.284,2.284,0,0,1,.668,1.615Zm0,8.093h-14.912a3.586,3.586,0,0,0-2.542,1.049,3.586,3.586,0,0,0-1.05,2.542h0a3.584,3.584,0,0,0,3.584,3.584h12.624a2.283,2.283,0,0,0,1.613-.669,2.284,2.284,0,0,0,.667-1.615Z" transform="translate(-1262.62 -166.489)" fill="#fff" fill-rule="evenodd"/>
    <path id="Caminho_1875" data-name="Caminho 1875" d="M3073.573-363.191h14.912a11.677,11.677,0,0,0,11.677-11.677h0a11.676,11.676,0,0,0-3.421-8.258,11.676,11.676,0,0,0-8.257-3.419h-11.353A11.643,11.643,0,0,0,3065.49-374.9v15.334a11.643,11.643,0,0,0,11.642,11.643h16.121a3.8,3.8,0,0,0,3.438-2.184l1.5-3.2a1.9,1.9,0,0,0-.115-1.825,1.9,1.9,0,0,0-1.6-.881h-19.361a3.549,3.549,0,0,1-3.549-3.548Zm0-8.093h14.912a3.584,3.584,0,0,0,3.582-3.584h0a3.576,3.576,0,0,0-1.051-2.542,3.578,3.578,0,0,0-2.533-1.051h-11.354a3.548,3.548,0,0,0-3.548,3.548Z" transform="translate(-2695.162 -166.488)" fill="#fff" fill-rule="evenodd"/>
    <path id="Caminho_1876" data-name="Caminho 1876" d="M1954.234-469.391v-13.631a1.9,1.9,0,0,0-.881-1.6,1.9,1.9,0,0,0-1.825-.117l-3.2,1.5a3.8,3.8,0,0,0-2.184,3.438v7.01h-9.879a16.706,16.706,0,0,0-16.706,16.706v4.956a16.706,16.706,0,0,0,16.706,16.706h7.6a10.377,10.377,0,0,0,10.377-10.377v-24.6Zm-8.093,4.7h-9.879a8.613,8.613,0,0,0-8.612,8.612v4.958a8.613,8.613,0,0,0,8.612,8.613h7.6a2.283,2.283,0,0,0,2.283-2.283Z" transform="translate(-1687.666 -80.002)" fill="#fff" fill-rule="evenodd"/>
    <path id="Caminho_1877" data-name="Caminho 1877" d="M2278.165-386.546a1.9,1.9,0,0,0-1.343.556,1.9,1.9,0,0,0-.555,1.342v26.341a2.28,2.28,0,0,1-.678,1.615,2.281,2.281,0,0,1-1.614.669h-7.595a8.613,8.613,0,0,1-8.613-8.613v-20.012a1.9,1.9,0,0,0-.556-1.342,1.9,1.9,0,0,0-1.344-.556h-4.29a1.9,1.9,0,0,0-1.344.556,1.906,1.906,0,0,0-.555,1.342v20.012a16.707,16.707,0,0,0,16.7,16.706h7.594a10.374,10.374,0,0,0,7.338-3.04,10.372,10.372,0,0,0,3.041-7.337v-26.341a1.9,1.9,0,0,0-.557-1.342,1.9,1.9,0,0,0-1.342-.556Z" transform="translate(-1977.918 -166.488)" fill="#fff" fill-rule="evenodd"/>
    <path id="Caminho_1878" data-name="Caminho 1878" d="M2601.116-382.478a16.641,16.641,0,0,0-10.925-4.067h-4.04a10.377,10.377,0,0,0-7.338,3.039,10.378,10.378,0,0,0-3.038,7.337v26.341a1.9,1.9,0,0,0,.556,1.342,1.894,1.894,0,0,0,1.342.556h4.3a1.9,1.9,0,0,0,1.9-1.9v-26.341a2.279,2.279,0,0,1,.677-1.615,2.283,2.283,0,0,1,1.613-.669h4.04a8.613,8.613,0,0,1,8.613,8.613v20.012a1.9,1.9,0,0,0,1.9,1.9h4.47a1.9,1.9,0,0,0,1.9-1.9v-26.341a2.285,2.285,0,0,1,.669-1.615,2.283,2.283,0,0,1,1.613-.669h4.042a8.613,8.613,0,0,1,8.613,8.613v20.012a1.9,1.9,0,0,0,.556,1.342,1.9,1.9,0,0,0,1.342.556h4.3a1.9,1.9,0,0,0,1.342-.556,1.9,1.9,0,0,0,.558-1.342v-20.012a16.706,16.706,0,0,0-16.706-16.706h-4.04a10.375,10.375,0,0,0-7.339,3.04A10.309,10.309,0,0,0,2601.116-382.478Z" transform="translate(-2264.613 -166.49)" fill="#fff" fill-rule="evenodd"/>
    <path id="Caminho_1879" data-name="Caminho 1879" d="M1779.549-386.545h-6.334a10.375,10.375,0,0,0-7.335,3.038,10.377,10.377,0,0,0-3.041,7.338v26.341a1.9,1.9,0,0,0,.556,1.342,1.9,1.9,0,0,0,1.344.556h4.3a1.894,1.894,0,0,0,1.342-.556,1.9,1.9,0,0,0,.557-1.342v-26.341a2.287,2.287,0,0,1,.668-1.615,2.283,2.283,0,0,1,1.613-.669h4.171a3.8,3.8,0,0,0,3.438-2.185c.462-.986,1.016-2.162,1.5-3.2a1.893,1.893,0,0,0-.115-1.825,1.9,1.9,0,0,0-1.6-.881Z" transform="translate(-1549.888 -166.49)" fill="#fff" fill-rule="evenodd"/>
    <path id="Caminho_1880" data-name="Caminho 1880" d="M221.138-518.122a1.4,1.4,0,0,0-1.4-1.4h-9.1a1.4,1.4,0,0,0-1.4,1.4v9.1a1.4,1.4,0,0,0,1.4,1.4h9.1a1.4,1.4,0,0,0,1.4-1.4Zm-26.663,1.742a.869.869,0,0,1,.869-.869h5.614a.869.869,0,0,1,.869.869v5.614a.869.869,0,0,1-.869.869h-5.614a.869.869,0,0,1-.869-.869Zm11.382-15.281a1.4,1.4,0,0,0-1.4-1.4h-9.1a1.4,1.4,0,0,0-1.4,1.4v9.1a1.4,1.4,0,0,0,1.4,1.4h9.1a1.4,1.4,0,0,0,1.4-1.4Zm-19.253,1.95a.869.869,0,0,0-.869-.869h-5.614a.869.869,0,0,0-.869.869v5.614a.869.869,0,0,0,.869.869h5.614a.869.869,0,0,0,.869-.869Zm-7.369-15.918a1.4,1.4,0,0,1,1.4-1.4h9.1a1.4,1.4,0,0,1,1.4,1.4v9.1a1.4,1.4,0,0,1-1.4,1.4h-9.1a1.4,1.4,0,0,1-1.4-1.4Zm19.268.234a.869.869,0,0,1,.869-.869h5.614a.869.869,0,0,1,.869.869v5.614a.869.869,0,0,1-.869.869h-5.614a.869.869,0,0,1-.869-.869Zm-38.55-28.237v20.117a1.4,1.4,0,0,0,1.4,1.4h9.1a1.4,1.4,0,0,0,1.4-1.4v-12.794a9.6,9.6,0,0,0-9.6-9.6h-.017a2.279,2.279,0,0,0-1.613.667,2.279,2.279,0,0,0-.668,1.613Zm45.964,11.014a1.4,1.4,0,0,0-1.4-1.4h-9.1a1.4,1.4,0,0,0-1.4,1.4v9.1a1.4,1.4,0,0,0,1.4,1.4h9.1a1.4,1.4,0,0,0,1.4-1.4Zm-26.663,1.742a.869.869,0,0,1,.869-.869h5.614a.869.869,0,0,1,.869.869v5.614a.869.869,0,0,1-.869.869h-5.614a.869.869,0,0,1-.869-.869Z" transform="translate(-140.629)" fill="#fff" fill-rule="evenodd"/>
    <path id="Caminho_1881" data-name="Caminho 1881" d="M2.279-336.837H29.795a1.4,1.4,0,0,1,1.4,1.4v6.851a1.4,1.4,0,0,1-1.4,1.4H7.163A7.163,7.163,0,0,1,0-334.346v-.213a2.279,2.279,0,0,1,.667-1.611A2.279,2.279,0,0,1,2.279-336.837Z" transform="translate(0 -210.194)" fill="#fff" fill-rule="evenodd"/>
    <path id="Caminho_1882" data-name="Caminho 1882" d="M631.442-419.078a20.535,20.535,0,0,0,14.521-6.014,20.535,20.535,0,0,0,6.013-14.52v-16.511a20.536,20.536,0,0,0-6.014-14.52,20.536,20.536,0,0,0-14.52-6.013H608.708a1.4,1.4,0,0,0-.991.41,1.4,1.4,0,0,0-.41.991v6.734a1.4,1.4,0,0,0,.41.991,1.4,1.4,0,0,0,.991.41h22.556a11.126,11.126,0,0,1,7.866,3.258A11.124,11.124,0,0,1,642.388-456v16.267a11.124,11.124,0,0,1-3.258,7.866,11.125,11.125,0,0,1-7.866,3.259h-8.018a1.4,1.4,0,0,0-.991.41,1.4,1.4,0,0,0-.41.991v6.734a1.4,1.4,0,0,0,.41.991,1.4,1.4,0,0,0,.991.41Z" transform="translate(-533.945 -87.261)" fill="#fff" fill-rule="evenodd"/>
    <path id="Caminho_1883" data-name="Caminho 1883" d="M670.138-335.436a1.4,1.4,0,0,1,1.4-1.4h9.1a1.4,1.4,0,0,1,1.4,1.4v9.1a1.4,1.4,0,0,1-1.4,1.4h-9.1a1.4,1.4,0,0,1-1.4-1.4Z" transform="translate(-589.185 -210.194)" fill="#00b0ff" fill-rule="evenodd"/>
  </g>
</svg>
