<svg xmlns="http://www.w3.org/2000/svg" width="149.737" height="12.91" viewBox="0 0 149.737 12.91">
  <path id="Subtração_15" data-name="Subtração 15" d="M665.992,42.91c-3.32,0-6.574-2.656-9.722-5.225l-.062-.05h0l-.007-.009-.007-.005a45.234,45.234,0,0,0-4.5-3.336,8.72,8.72,0,0,0-4.421-1.514c-2.936,0-6.017,2.493-9,4.91h0l-.054.044h0l-.008.006a44.69,44.69,0,0,1-4.8,3.561,8.175,8.175,0,0,1-9.761,0,44.7,44.7,0,0,1-4.8-3.561l-.005-.005-.054-.043h0c-2.981-2.415-6.064-4.912-9-4.912-2.915,0-6,2.493-8.975,4.909H600.8c-3.166,2.569-6.44,5.225-9.741,5.225-3.339,0-6.594-2.656-9.741-5.225h0c-2.984-2.415-6.064-4.912-9-4.912s-6.015,2.493-8.994,4.909h-.006c-3.147,2.57-6.405,5.226-9.744,5.226a9.59,9.59,0,0,1-4.883-1.617,44.888,44.888,0,0,1-4.8-3.557l-.012-.011-.049-.04h0c-2.98-2.415-6.062-4.911-9-4.911-2.916,0-6,2.493-8.974,4.908h-.009l-.054.044-.013.011a44.464,44.464,0,0,1-4.8,3.555,10.018,10.018,0,0,1-4.475,1.6V40.124c2.815-.214,5.751-2.594,8.595-4.9h.007c3.147-2.568,6.4-5.224,9.72-5.224,3.335,0,6.592,2.656,9.74,5.225h0c2.981,2.415,6.063,4.912,9,4.912s6.019-2.493,9-4.91h0c3.151-2.574,6.408-5.231,9.743-5.231a9.588,9.588,0,0,1,4.879,1.616,44.8,44.8,0,0,1,4.8,3.561l.009.007.054.044c2.984,2.416,6.065,4.914,9.006,4.914,2.92,0,6-2.5,8.983-4.914l.058-.047h0l.014-.012a44.781,44.781,0,0,1,4.788-3.548A9.593,9.593,0,0,1,609.778,30c3.336,0,6.593,2.657,9.742,5.226,2.981,2.416,6.064,4.915,9,4.915s6.022-2.493,9-4.912c3.15-2.57,6.407-5.227,9.744-5.227a9.588,9.588,0,0,1,4.879,1.616,44.817,44.817,0,0,1,4.808,3.561l.054.045h0c2.981,2.414,6.063,4.91,8.98,4.91.091,0,.17,0,.242-.005V42.9A1.4,1.4,0,0,1,665.992,42.91Z" transform="translate(-516.497 -30)" fill="#0ef"/>
</svg>
